# xmcd
#
# Track frame offsets:
#	150
#	19210
#	37612
#	52432
#	80997
#	97902
#	112807
#	130285
#	147750
#	168492
#	186435
#	207805
#	223102
#	237927
#	258560
#	277917
#
# Disc length: 3975 seconds
#
# Revision: 1
# Processed by: cddbd v1.5.1PL0 Copyright (c) Steve Scherf et al.
# Submitted via: CDex 1.50Beta5
#
DISCID=e90f8510
DTITLE=Various Artist - NEW MUSIC BEST COLLECTION 11
DYEAR=1900
DGENRE=NEW MUSIC
TTITLE0=アリス/チャンピオン
TTITLE1=アリス/帰らざる日々
TTITLE2=オフコース/眠れぬ夜
TTITLE3=オフコース/言葉にできない
TTITLE4=石川優子/シンデレラ サマー
TTITLE5=尾崎亜美/マイ.ピュア.レデー
TTITLE6=甲斐バンド/HEROヒーローになる時、それは今
TTITLE7=BOOWY/マリオネット
TTITLE8=BOOWY/わがままジュリエット
TTITLE9=アリス/今はもうだれも
TTITLE10=谷村新司/日はまた昇る
TTITLE11=堀内孝雄/君のひとみは10000ボルト
TTITLE12=THE TIMERS/デイ・ドリーム・ビリーバー 〜DAY DREAM BELIEVER
TTITLE13=ダウン・タウン・ブギウギ・バンド/港のヨーコ.ヨコハマ.ヨコスカ
TTITLE14=寺尾聡/ルビーの指輪
TTITLE15=忌野清志郎 2・3's/パパの手の歌
EXTD=
EXTT0=
EXTT1=
EXTT2=
EXTT3=
EXTT4=
EXTT5=
EXTT6=
EXTT7=
EXTT8=
EXTT9=
EXTT10=
EXTT11=
EXTT12=
EXTT13=
EXTT14=
EXTT15=
PLAYORDER=
